<?xml version="1.0" standalone="no"?>
<!DOCTYPE svg PUBLIC "-//W3C//DTD SVG 20010904//EN"
 "http://www.w3.org/TR/2001/REC-SVG-20010904/DTD/svg10.dtd">
<svg version="1.0" xmlns="http://www.w3.org/2000/svg"
 width="431.000000pt" height="431.000000pt" viewBox="0 0 431.000000 431.000000"
 preserveAspectRatio="xMidYMid meet">
<metadata>
Created by potrace 1.11, written by Peter Selinger 2001-2013
</metadata>
<g transform="translate(0.000000,431.000000) scale(0.100000,-0.100000)"
fill="#000000" stroke="none">
<path d="M2837 3994 c-1 -1 -40 -5 -87 -8 -72 -6 -206 -24 -300 -40 -14 -3
-43 -7 -65 -11 -22 -3 -47 -7 -55 -10 -8 -2 -33 -6 -55 -10 -22 -3 -103 -17
-180 -30 -77 -14 -153 -28 -170 -30 -35 -7 -333 -65 -355 -70 -268 -61 -270
-62 -500 -132 -416 -128 -651 -273 -745 -458 -34 -67 -39 -85 -41 -158 -4
-113 41 -299 115 -472 10 -22 26 -60 36 -85 10 -25 24 -60 32 -77 24 -55 63
-163 98 -267 60 -184 81 -323 90 -611 11 -320 15 -431 19 -452 3 -11 8 -43 11
-70 33 -237 166 -439 397 -605 85 -60 282 -169 373 -205 96 -38 193 -74 210
-78 11 -2 61 -16 110 -30 190 -53 306 -70 490 -70 144 0 195 7 297 39 253 78
390 233 648 731 113 219 163 306 228 400 51 73 192 253 225 286 82 84 274 349
310 429 27 59 56 162 65 225 13 95 7 267 -13 375 -3 14 -7 41 -10 60 -3 19 -8
43 -11 52 -3 9 -7 25 -9 35 -15 78 -102 367 -155 518 -147 417 -303 645 -517
753 -48 25 -166 58 -238 68 -49 6 -243 13 -248 8z"/>
</g>
</svg>
